<svg width="16" height="16" viewBox="0 0 16 16" fill="none" xmlns="http://www.w3.org/2000/svg">
<g clip-path="url(#clip0_1_1497)">
<path d="M1.07092 12.8915C1.36848 12.796 1.78974 12.7952 2.20434 12.8012C4.78693 12.7988 7.36953 12.7997 9.95212 12.804C10.1106 12.8044 10.1364 12.7563 10.1358 12.6126C10.1302 11.3906 10.1315 10.1686 10.1332 8.94664C10.1338 8.55819 10.4497 8.30455 10.8071 8.39905C10.9118 8.42859 11.0051 8.48916 11.0747 8.57278C11.1443 8.6564 11.187 8.75915 11.197 8.86748C11.2013 8.91715 11.1991 8.9674 11.1991 9.01739C11.1992 11.1336 11.1992 13.2499 11.1991 15.3661C11.1991 15.799 11 15.9998 10.5707 15.9999C7.61044 16 4.65018 15.9999 1.68992 15.9998C0.680802 15.9997 0.000266252 15.3177 0.00018289 14.3066C-0.000101653 10.8129 -0.000101653 7.31912 0.00018289 3.82537C0.000292928 2.81415 0.680479 2.13355 1.69087 2.13335C3.5459 2.13297 5.40092 2.13311 7.25594 2.13378C7.65952 2.13404 7.92044 2.47407 7.7998 2.83557C7.72426 3.06196 7.52501 3.19906 7.26064 3.19945C6.42755 3.20069 5.59446 3.20084 4.76136 3.19992C3.72278 3.19992 2.68419 3.20005 1.64558 3.20031C1.29042 3.20068 1.06736 3.41716 1.06724 3.76564C1.06627 6.77614 1.06614 9.78665 1.06683 12.7971C1.06685 12.8192 1.06869 12.8413 1.07092 12.8915ZM5.7994 13.8666C4.42798 13.8666 3.05657 13.8668 1.68516 13.8671C1.61868 13.8641 1.55209 13.8683 1.4865 13.8795C1.35745 13.9072 1.2433 13.9819 1.1662 14.089C1.08911 14.1962 1.05457 14.3281 1.06931 14.4593C1.08405 14.5905 1.147 14.7115 1.24595 14.7988C1.3449 14.8862 1.47277 14.9337 1.60476 14.932C2.33209 14.9354 3.05945 14.9332 3.7868 14.9332C5.84669 14.9332 7.90659 14.9344 9.96648 14.9368C10.1069 14.9372 10.1368 14.9099 10.136 14.7648C10.1368 14.5103 10.1368 14.2686 10.136 14.0155C10.1368 13.8864 10.1012 13.8633 9.98026 13.8637C8.58665 13.8682 7.19302 13.8666 5.7994 13.8666Z" fill="#404040"/>
<path d="M12.2657 0.5H12.2658C12.9056 0.499946 13.531 0.689716 14.0629 1.04529C14.5948 1.40086 15.0093 1.90624 15.2538 2.49747C15.4984 3.0887 15.562 3.73919 15.4367 4.3666C15.3113 4.99401 15.0027 5.57014 14.5498 6.02204C14.0968 6.47395 13.52 6.78132 12.8923 6.90526C12.2647 7.02919 11.6143 6.96411 11.0236 6.71826C10.4329 6.4724 9.92849 6.05683 9.5741 5.52414C9.21971 4.99144 9.03134 4.36558 9.03282 3.72578L9.03282 3.72523C9.03499 1.94662 10.4841 0.5 12.2657 0.5Z" stroke="#404040"/>
<path d="M5.60054 11.7332C4.71826 11.7332 3.83599 11.7346 2.95372 11.7325C2.66116 11.7318 2.43227 11.5308 2.40236 11.2587C2.38842 11.1306 2.4214 11.0018 2.4952 10.8961C2.56899 10.7904 2.67858 10.7151 2.80367 10.6841C2.85205 10.6723 2.90172 10.6667 2.95151 10.6673C4.71606 10.6665 6.4806 10.6665 8.24515 10.6673C8.53804 10.6675 8.7661 10.8678 8.79665 11.1406C8.81036 11.2715 8.77539 11.403 8.69841 11.5098C8.62142 11.6166 8.5078 11.6914 8.37922 11.7198C8.31373 11.7312 8.24719 11.7356 8.18077 11.7327C7.32069 11.7335 6.46062 11.7337 5.60054 11.7332Z" fill="#404040"/>
<path d="M6.68315 8.53325C7.19339 8.53325 7.70364 8.53334 8.21389 8.53351C8.55406 8.53418 8.79481 8.75152 8.79898 9.05869C8.80326 9.37355 8.56048 9.59935 8.21292 9.59963C7.18133 9.60046 6.14974 9.60046 5.11815 9.59963C4.77831 9.59935 4.53729 9.38091 4.53337 9.07394C4.52935 8.75781 4.77037 8.53421 5.11912 8.53353C5.64046 8.53251 6.1618 8.53241 6.68315 8.53325Z" fill="#404040"/>
<path d="M3.08851 8.53394C3.28758 8.53284 3.41077 8.55084 3.52686 8.6472C3.69825 8.78947 3.77222 9.00303 3.71072 9.2105C3.68224 9.31533 3.62199 9.40877 3.53827 9.47798C3.45454 9.54718 3.35143 9.58876 3.24312 9.597C3.12715 9.60492 3.01077 9.60507 2.89478 9.59743C2.76109 9.58732 2.63606 9.52737 2.54447 9.42946C2.45288 9.33154 2.40139 9.2028 2.40021 9.06873C2.39911 8.78497 2.61944 8.53284 2.90602 8.5344C2.96165 8.53466 3.01664 8.53394 3.08851 8.53394Z" fill="#404040"/>
<path d="M12.1669 3.76355L12.1667 3.76354C12.166 3.77959 12.1687 3.79562 12.1748 3.81049L11.712 3.99961L12.1748 3.81049C12.1809 3.82537 12.1902 3.83874 12.2019 3.84967L12.212 3.85904L12.2119 3.85918C12.4212 4.06437 12.6309 4.27482 12.8381 4.48282C12.9617 4.6068 13.0843 4.7299 13.2055 4.8505L12.1669 3.76355ZM12.1669 3.76355L12.1672 3.75225M12.1669 3.76355L12.1672 3.75225M12.1672 3.75225C12.1716 3.56968 12.1706 3.38247 12.1696 3.20441M12.1672 3.75225L12.1696 3.20441M12.169 2.2584V2.25841C12.1684 2.42589 12.1685 2.59273 12.1687 2.76072C12.1687 2.83689 12.1688 2.91329 12.1688 2.99009L12.169 2.2584ZM12.169 2.2584C12.1691 2.22347 12.1746 2.19981 12.1797 2.18582C12.1833 2.17558 12.1868 2.17011 12.1885 2.1678C12.1909 2.16728 12.1954 2.16661 12.2026 2.16667H12.2026M12.169 2.2584L12.2026 2.16667M12.2026 2.16667C12.2099 2.16672 12.2139 2.16761 12.2156 2.16808C12.2164 2.16902 12.2349 2.19038 12.235 2.2509V2.25091M12.2026 2.16667L12.235 2.25091M12.235 2.25091C12.2353 2.33167 12.2356 2.4118 12.236 2.49143C12.2374 2.7985 12.2388 3.09818 12.2325 3.39873C12.227 3.52639 12.2502 3.65371 12.3004 3.77132C12.3498 3.88696 12.424 3.99023 12.5178 4.07383C12.718 4.26563 12.9132 4.46189 13.1134 4.6631C13.1577 4.70764 13.2022 4.75242 13.2471 4.79745L13.2471 4.79746M12.235 2.25091L13.2471 4.79746M13.2471 4.79746C13.2874 4.83782 13.2995 4.86582 13.3029 4.87714C13.301 4.87987 13.2978 4.88372 13.293 4.88857L13.293 4.88858M13.2471 4.79746L13.293 4.88858M13.293 4.88858C13.2865 4.89518 13.2815 4.89899 13.2784 4.90105M13.293 4.88858L13.2784 4.90105M12.1696 3.20441C12.1692 3.1311 12.1688 3.05934 12.1688 2.9901L12.1696 3.20441ZM13.2784 4.90105C13.2685 4.89818 13.2428 4.88764 13.2055 4.8505L13.2784 4.90105Z" fill="#404040" stroke="#404040"/>
</g>
<defs>
<clipPath id="clip0_1_1497">
<rect width="15.9987" height="16" fill="white"/>
</clipPath>
</defs>
</svg>
